<?xml version="1.0" encoding="utf-8"?>
<!-- Generator: Adobe Illustrator 28.0.0, SVG Export Plug-In . SVG Version: 6.00 Build 0)  -->
<svg version="1.1" id="Calque_1" xmlns="http://www.w3.org/2000/svg" xmlns:xlink="http://www.w3.org/1999/xlink" width="32" height="32"
	 viewBox="0 0 512 512" style="enable-background:new 0 0 512 512;" xml:space="preserve">
<style type="text/css">
	.st0{fill:#322C2A;}
	.st1{fill:#FEFEFE;}
	.st2{fill:#FFFFFF;}
	.st3{fill:#E84443;}
	.st4{fill:#3968B0;}
	.st5{fill:#82766A;}
</style>
<path class="st0" d="M0.1,259c0-2.7,0-5.3,0-8c1.9-0.3,3.9-0.7,5.8-0.7c8-0.1,16-0.1,24,0c3.1,0.1,4.7-0.9,4.5-4.3
	c-0.4-4.3,0.7-8.6,1.1-12.9c1.9-23.3,7.9-45.6,17.3-66.9c9.6-22,22.7-41.9,38.8-59.8c18.9-21,41-37.6,66.2-50.2
	c0.6-0.3,1.2-0.6,1.8-0.9l0.2,0c0.6-0.3,1.2-0.6,1.8-0.9l0.3-0.1c0.8,0,1.3-0.3,1.7-0.9l0.3-0.1c0.8,0.1,1.3-0.3,1.7-0.9l0.3-0.1
	c1,0.1,1.9,0,2.3-1l0,0c1,0.3,1.7-0.1,2.3-0.9c7.3-3.2,14.8-5.7,22.3-8.1c8.8-2.8,17.9-4.4,26.9-6c1.7,0.2,3.4,0.3,4.8-0.9l0.3,0
	c3.2-0.2,6.5,0.3,9.6-1l0.3,0c3.8-0.1,7.7,0.6,11.4-1.1l0,0c1.7,0,3.7,1,5.1-0.9l0.1-0.1c1.2-0.5,1.1-1.5,1.1-2.5
	c-0.1-9.8-0.2-19.7-0.2-29.5c3,0,6,0,9,0c0,9.3-0.1,18.6,0,27.9c0,1.4-0.6,3.1,1,4.1l0,0c2.1,2.3,4.8,0.9,7.2,1.1
	c17.3,0.5,34.1,3.9,50.6,8.8c17.4,5.1,33.9,12.2,49.5,21.4c21.1,12.4,39.6,27.9,55.6,46.3c14.2,16.3,25.5,34.4,34.6,54.1
	c7.7,16.7,12.4,34.2,16.3,52c-0.2,4.9,0.3,9.6,2,14.3l0-0.1c0.1,5.1,0.1,10.2,0.3,15.3c0,1.4-0.1,3.1,1.7,3.7l0,0
	c-0.1,0.7,0.3,1,1,1l0,0c6.8,2.1,13.7,0.6,20.5,0.9c8.3,0.3,8.3,0.1,10.5,7c0,0.7,0,1.3,0,2c-10.3-0.1-20.6-0.1-30.9-0.2
	c-2.1,0-2.2,1.5-2.4,3.1c-0.6,5.8-1.1,11.6-0.8,17.4l-0.1,0.4c-1.5,4.1-2.2,8.3-1.9,12.7c-0.8,5.2-2.6,10.2-3.6,15.2
	c-1.7,8.9-4.5,17.3-7.7,25.6c-13.3,35-34.6,64.4-62.7,89c-17.2,15.1-36.6,26.7-57.4,35.9c-18.3,8-37.4,13.6-57.4,15.7
	c-7.8-0.3-15.4,0.9-23.1,1.9c-0.6,0.3-1.2,0.7-1.9,1c-2,1.2-1.1,3.3-1.2,4.9c-0.1,8.9-0.1,17.8-0.2,26.7c-2.9,0.9-5.9,0.1-8.8,0.3
	l0.2-0.3c0-9.6,0.1-19.2,0.1-28.8c0-1.4,0.4-3.1-1.4-3.9c-7.8,0.4-15.7,0-23.3-1.3c-19.7-3.4-39.2-8-57.7-16.1
	c-22.4-9.7-42.9-22.4-61-38.7c-24.3-22-43.5-47.8-56.6-78c-10.6-24.4-16.2-49.9-17.9-76.4c-0.4-6.6-0.2-6.5-7-6.7
	C18.3,259.5,9.2,260.8,0.1,259z M45,234.5c-1.7,2.3-0.9,5-1,7.6c-0.1,8.1-0.1,8.1,8,8.1c14,0,28-0.1,41.9,0.1c3,0,5.4-0.7,7.9-2.3
	c27.4-18.1,54.7-36.1,82.2-54c3.5-2.3,3.5-3.6,0.6-6.5c-19.8-19.5-39.5-39.1-59-58.9c-5.5-5.6-12-8.9-19.4-10.3
	c-5-1-10.5-1.2-14.4,3.3c-11.9,13.7-21,29.2-28.7,45.6c-8.6,18.4-13.7,38-17.2,57.9c-1.3,3.1-1.1,6.3-0.9,9.6L45,234.5z
	 M261.7,403.1c0,19.3,0,38.6,0,57.9c0,6.1,0.5,6.6,6.6,6c15.4-1.4,30.7-3.5,45.6-7.7c29.2-8.3,55.3-22.2,78.9-41.3
	c2.9-2.4,4.2-5,3.5-8.5c-0.5-2.7-1.3-5.4-2.3-8c-3.4-9.2-10.7-15.3-17.4-21.9c-18-17.8-35.8-35.7-53.6-53.7c-2-2-3.4-2.4-5.8-0.9
	c-5.8,3.5-12.2,5.7-18.6,7.9c-10.5,3.6-21.3,5.7-32.2,6.6c-4.4,0.3-4.6,2.4-4.6,5.8C261.8,364.4,261.7,383.8,261.7,403.1z
	 M261.7,106.5c0,19.6,0.1,39.3-0.1,58.9c0,4,1.2,5.6,5.4,5.7c16.9,0.5,33,4.8,48.3,12c3.5,1.6,5.5,1,8.1-1.6
	c19.2-19.4,38.5-38.7,57.9-57.9c6.3-6.3,10-14,11.7-22.5c0.8-3.7,1.7-7.6-2.7-11.1c-22.2-17.9-46.8-30.7-74.2-38.6
	c-16.2-4.7-32.6-7.3-49.3-8.6c-4.3-0.3-5.3,1.2-5.3,5.3C261.8,67.6,261.7,87.1,261.7,106.5z M251.4,403.6
	C251.5,403.6,251.5,403.6,251.4,403.6c0-19.8,0-39.6,0.1-59.5c0-3.3-0.7-4.7-4.3-4.7c-5-0.1-9.9-0.9-14.8-1.7
	c-12.5-2.1-24.5-5.9-35.9-11.2c-2.2-1-3.5-0.7-5.1,0.9c-19.6,19.7-39.4,39.2-58.8,59.2c-7,7.2-12,15.8-12,26.6c0,3.5,1.3,5.8,4,7.9
	c13.1,10,26.9,18.5,41.7,25.7c25.3,12.2,52,18.3,79.9,20.4c4,0.3,5.4-0.7,5.3-5C251.3,442.6,251.4,423.1,251.4,403.6z M251.4,107
	c0-19.8-0.1-39.6,0.1-59.5c0-4.1-1.2-5.1-5.1-4.8c-15.4,1.2-30.7,3.3-45.6,7.4c-26.2,7.2-50.2,19.3-72.2,35.4
	c-4.3,3.1-5.7,7.2-5.2,12.1c1.1,9.7,4.6,18.6,11.2,25.5c19.5,20.1,39.6,39.6,59.4,59.4c2,2,3.4,2,6,0.8c14.9-6.8,30.4-11.4,46.9-12
	c4-0.2,4.5-1.9,4.5-5.3C251.4,146.3,251.5,126.7,251.4,107z M441.1,250.2c7.5,0,15-0.2,22.5,0.1c4.4,0.2,5.8-1.2,5.6-5.7
	c-1.2-23.6-6.1-46.3-14.8-68.3c-7.5-19-18-36.2-30.2-52.5c-4.2-5.7-8.9-7.2-15.5-5.3c-7.3,2.1-13.8,5.6-19.2,10.9
	c-7.8,7.7-15.6,15.5-23.3,23.3c-11.7,11.6-23.3,23.3-35,34.9c-1.6,1.6-3.4,2.9-0.4,5c7,4.7,13.7,9.8,20.7,14.5
	c17,11.5,34.4,22.6,51.1,34.5c8.5,6,16.9,10.1,27.5,8.6C433.8,249.8,437.5,250.2,441.1,250.2z M75.3,259.8c-11.7,0-19.7,0.1-27.6,0
	c-2.7,0-3.8,0.7-3.8,3.6c0.1,5.2,1.1,10.2,1.6,15.2c1.1,10.4,3.1,20.6,5.7,30.7c7.6,28.9,21,55,39.6,78.4c2.1,2.6,4.3,3.7,7.6,3.6
	c9.5-0.3,18-3.5,24.7-10.1c19.7-19.3,39-38.9,58.6-58.2c2.8-2.8,3.1-4.3-0.5-6.7c-20.8-13.9-42-27.5-62.1-42.3
	C104.8,263.3,90.1,255.8,75.3,259.8z M469,269.8c0.3-9.9,0.3-9.9-7.3-9.9c-14,0-28,0.1-42-0.1c-2.8,0-5.2,0.6-7.5,2.2
	c-26.3,17.4-52.7,34.8-79.1,52.1c-3.4,2.2-4.3,3.6-0.9,7c18.7,18.4,37.3,37,55.8,55.6c7.2,7.3,15.6,12.3,25.6,14.4
	c3.8,0.8,6.6,0,9.1-3.4c5.3-7.3,10.7-14.4,15.4-22C456.9,335.6,466.6,302.7,469,269.8z M316.5,255.4c0.8-31.9-25.2-60.3-60.2-60.4
	c-32.8-0.1-59.8,27.5-59.5,60.3c0.3,33.1,27.3,59.6,60.7,59.6C289.8,314.8,316.7,287.6,316.5,255.4z"/>
<path class="st1" d="M261.8,509.7c0.1,0.7,0.1,1.5,0.2,2.2c-3.3,0-6.7,0-10,0c0-0.7,0-1.4,0-2.1c2.9-0.2,5.9,0.6,8.8-0.3
	C261.2,509.6,261.5,509.6,261.8,509.7z"/>
<path class="st2" d="M261.7,403.1c0-19.3,0-38.6,0-57.9c0-3.4,0.2-5.4,4.6-5.8c11-0.9,21.8-3,32.2-6.6c6.4-2.2,12.8-4.4,18.6-7.9
	c2.4-1.5,3.9-1.1,5.8,0.9c17.8,18,35.7,35.9,53.6,53.7c6.7,6.6,14,12.7,17.4,21.9c1,2.6,1.8,5.3,2.3,8c0.7,3.5-0.6,6.2-3.5,8.5
	c-23.5,19.1-49.7,33-78.9,41.3c-14.9,4.2-30.2,6.3-45.6,7.7c-6.1,0.6-6.6,0-6.6-6C261.7,441.7,261.7,422.4,261.7,403.1z"/>
<path class="st2" d="M261.7,106.5c0-19.5,0.1-39-0.1-58.4c0-4.1,1-5.7,5.3-5.3c16.7,1.3,33.1,3.9,49.3,8.6
	c27.4,7.9,52,20.7,74.2,38.6c4.4,3.5,3.4,7.5,2.7,11.1c-1.8,8.5-5.4,16.2-11.7,22.5c-19.4,19.3-38.7,38.5-57.9,57.9
	c-2.6,2.6-4.7,3.2-8.1,1.6c-15.3-7.2-31.3-11.5-48.3-12c-4.1-0.1-5.4-1.7-5.4-5.7C261.8,145.8,261.7,126.2,261.7,106.5z"/>
<path class="st1" d="M251.4,403.6c0,19.5-0.2,39,0.1,58.5c0.1,4.4-1.3,5.3-5.3,5c-27.8-2.1-54.6-8.2-79.9-20.4
	c-14.9-7.1-28.7-15.7-41.7-25.7c-2.8-2.1-4-4.4-4-7.9c0-10.7,5-19.4,12-26.6c19.3-20,39.2-39.5,58.8-59.2c1.6-1.7,2.9-2,5.1-0.9
	c11.5,5.3,23.4,9.1,35.9,11.2c4.9,0.8,9.9,1.6,14.8,1.7c3.6,0.1,4.3,1.4,4.3,4.7C251.4,364,251.5,383.8,251.4,403.6
	C251.5,403.6,251.5,403.6,251.4,403.6z"/>
<path class="st1" d="M251.5,107c0,19.7-0.1,39.3,0.1,59c0,3.4-0.5,5.1-4.5,5.3c-16.5,0.6-32,5.2-46.9,12c-2.6,1.2-4.1,1.2-6-0.8
	c-19.8-19.8-39.9-39.3-59.4-59.4c-6.6-6.8-10.2-15.8-11.2-25.5c-0.5-5,0.9-9,5.2-12.1c22-16.1,45.9-28.2,72.2-35.4
	c14.9-4.1,30.2-6.2,45.6-7.4c3.8-0.3,5.1,0.7,5.1,4.8C251.3,67.4,251.4,87.2,251.5,107z"/>
<path class="st3" d="M441.1,250.2c-3.7,0-7.4-0.4-11,0.1c-10.6,1.5-19-2.6-27.5-8.6c-16.7-11.9-34.1-23-51.1-34.5
	c-7-4.7-13.8-9.7-20.7-14.5c-3-2.1-1.2-3.4,0.4-5c11.7-11.6,23.3-23.3,35-34.9c7.8-7.8,15.5-15.5,23.3-23.3
	c5.4-5.4,11.9-8.8,19.2-10.9c6.6-1.9,11.3-0.4,15.5,5.3c12.2,16.3,22.6,33.6,30.2,52.5c8.7,21.9,13.6,44.7,14.8,68.3
	c0.2,4.4-1.2,5.9-5.6,5.7C456.1,250,448.6,250.2,441.1,250.2z"/>
<path class="st4" d="M75.3,259.8c14.8-4.1,29.5,3.4,44,14.2c20.1,14.9,41.3,28.4,62.1,42.3c3.6,2.4,3.3,4,0.5,6.7
	c-19.6,19.4-39,38.9-58.6,58.2c-6.7,6.6-15.2,9.8-24.7,10.1c-3.3,0.1-5.6-1-7.6-3.6c-18.6-23.4-32-49.5-39.6-78.4
	c-2.7-10.1-4.7-20.3-5.7-30.7c-0.5-5.1-1.5-10.1-1.6-15.2c0-2.9,1-3.7,3.8-3.6C55.6,259.9,63.6,259.8,75.3,259.8z"/>
<path class="st3" d="M469,269.8c-2.5,32.9-12.1,65.8-30.8,95.9c-4.7,7.6-10.1,14.8-15.4,22c-2.5,3.4-5.3,4.1-9.1,3.4
	c-10.1-2.1-18.4-7.1-25.6-14.4c-18.5-18.7-37-37.3-55.8-55.6c-3.4-3.4-2.5-4.8,0.9-7c26.4-17.3,52.7-34.7,79.1-52.1
	c2.3-1.5,4.7-2.2,7.5-2.2c14,0.1,28,0.1,42,0.1C469.3,259.8,469.3,259.8,469,269.8z"/>
<path class="st1" d="M316.5,255.4c0.2,32.2-26.8,59.4-59,59.5c-33.4,0.1-60.4-26.5-60.7-59.6c-0.2-32.8,26.7-60.3,59.5-60.3
	C291.4,195.1,317.4,223.5,316.5,255.4z M257.4,219.3c-20.2-0.1-36.2,15.7-36.3,35.8c-0.1,19.6,16,35.6,35.9,35.6
	c19.4,0,35.6-16.2,35.6-35.5C292.6,235.6,276.7,219.4,257.4,219.3z"/>
<path class="st4" d="M250.9,476.9c-7.8,0.4-15.7,0-23.3-1.3c-19.7-3.4-39.2-8-57.7-16.1c-22.4-9.7-42.9-22.4-61-38.7
	c-24.3-22-43.5-47.8-56.6-78c-10.6-24.4-16.2-49.9-17.9-76.4c-0.4-6.6-0.2-6.5-7-6.7c-9.1-0.3-18.3,1-27.3-0.8c0,6.3,0,12.7,0,19
	c2.1,6.2,1.9,12.7,2.9,19.1c2.6,17.4,7.3,34.2,13.5,50.5c4.3,11.2,9.3,22.1,15.2,32.7c9.2,16.4,19.6,31.9,32.2,45.7
	c14.9,16.4,31.3,31.2,50,43.3c6,3.9,12.5,7.1,18.3,11c5.2,3.6,11.4,4.8,16.4,8.5c0.7,0.5,2.1-0.2,2.9,0.3
	c11.5,6.8,24.1,10.8,36.8,14.2c15.5,4.1,31.1,7.6,47.3,7.6c1.2,0,2.7-0.7,3.5,1c4.3,0,8.7,0,13,0c0-0.7,0-1.4,0-2.1l0.2-0.3
	c0-9.6,0.1-19.2,0.1-28.8C252.2,479.4,252.7,477.7,250.9,476.9z"/>
<path class="st3" d="M481,259.8C481,259.8,481,259.8,481,259.8C481,259.8,481,259.8,481,259.8c-0.1,0-0.1,0-0.2,0c0,0,0,0,0,0
	c-1.9,0.1-2,1.6-2.2,3.1c-0.6,5.7-1.1,11.4-0.8,17.1c-0.1,0.1-0.1,0.2-0.2,0.3c0,0-0.1,0.4-0.1,0.4c0,0.2,0,0.3,0,0.5
	c-1.3,3.8-1.9,7.6-1.7,11.6c-0.1,0.2-0.1,0.4-0.2,0.5c-0.8,5.2-2.6,10.2-3.6,15.2c-1.7,8.9-4.5,17.3-7.7,25.6
	c-13.3,35-34.6,64.4-62.7,89c-17.2,15.1-36.6,26.7-57.4,35.9c-18.3,8-37.4,13.6-57.4,15.7c-7.7-0.3-15.3,0.9-22.9,1.9
	c2.9,0.1,5.7,0.2,8.6,0.2c-2.9,0-5.9-0.1-8.8-0.2c-0.6,0.3-1.2,0.7-1.9,1c0,0,0,0.1,0,0.1c-1.8,1.3-0.9,3.2-0.9,4.8
	c-0.1,8.9-0.1,17.8-0.2,26.7c0.3,0.1,0.5,0.1,0.8,0.2c0,0,0,0,0,0c0.1,0.7,0.1,1.5,0.2,2.2c4.7,0,9.3,0,14,0c0.4-1.3,1.6-1,2.5-1
	c6.1,0.1,12-1.1,18.1-1.9c26.3-3.5,51-12.2,74.6-23.8c18.9-9.3,36.3-21.1,52.2-35.1c16.2-14.2,30.9-29.7,43.1-47.4
	c11.5-16.6,21-34.3,28.3-53.2c7.5-19.5,12.8-39.5,15.3-60.3c0.4-3.7-0.4-7.8,1.8-11.3c0-6,0-12,0-18
	C501.5,259.9,491.2,259.9,481,259.8z"/>
<path class="st4" d="M184.6,187.4c-19.8-19.5-39.5-39.1-59-58.9c-5.5-5.6-12-8.9-19.4-10.3c-5-1-10.5-1.2-14.4,3.3
	c-11.9,13.7-21,29.2-28.7,45.6c-8.6,18.4-13.7,38-17.2,57.9c-1.3,3.1-1.1,6.3-0.9,9.6c0,0,0,0.1,0,0.1c-1.7,2.3-0.9,5-1,7.6
	c-0.1,8.1-0.1,8.1,8,8.1c14,0,28-0.1,41.9,0.1c3,0,5.4-0.7,7.9-2.3c27.4-18.1,54.7-36.1,82.2-54
	C187.6,191.6,187.6,190.3,184.6,187.4z"/>
<path class="st3" d="M511,233c-0.6-11.3-2.7-22.3-5-33.4c-6-28.5-17.3-54.7-32.5-79.4c-13.7-22.3-31-41.6-50.7-58.8
	c-14.6-12.7-30.5-23.4-47.5-32.5c-16.4-8.8-33.6-15.7-51.6-20.3C309.6,5,295.4,1,280.5,1.1c-0.9,0-2.1,0.3-2.5-1c-5.3,0-10.7,0-16,0
	c-0.3,0-0.7,0-1,0c0,9.3-0.1,18.6,0,27.9c0,1.4-0.6,3.1,1,4.1c0,0,0,0,0,0c2.1,2.2,4.8,0.9,7.2,1.1c-0.1-0.1-0.3-0.2-0.4-0.3
	c0.1,0.1,0.3,0.2,0.4,0.3c17.3,0.5,34.1,3.9,50.6,8.8c17.4,5.1,33.9,12.2,49.5,21.4c21.1,12.4,39.6,27.9,55.6,46.3
	c14.2,16.3,25.5,34.4,34.6,54.1c7.7,16.7,12.4,34.2,16.3,52c-0.2,4.9,0.3,9.6,2,14.2c0.1,5.1,0.1,10.2,0.3,15.3
	c0,1.4-0.1,3.1,1.7,3.7c0,0,0,0,0,0c0.3,0.3,0.7,0.7,1,1c0,0,0,0,0,0c6.8,2.1,13.7,0.6,20.5,0.9c8.3,0.3,8.3,0.1,10.5,7
	c0-2.7,0-5.3,0-8c0-5.3,0-10.7,0-16C511.6,233.7,511,233.3,511,233z M262,32.1c1.6,0.3,3.3-0.1,5,0.2C265.3,32,263.6,32.4,262,32.1z
	 M268.3,32.7c0.1,0,0.2,0.1,0.3,0.2C268.5,32.8,268.4,32.7,268.3,32.7z M267,32.3c0.1,0,0.2,0,0.3,0.1
	C267.2,32.3,267.1,32.3,267,32.3z M267.5,32.4c0.1,0,0.2,0.1,0.4,0.1C267.7,32.4,267.6,32.4,267.5,32.4z M267.9,32.5
	c0.1,0,0.2,0.1,0.3,0.1C268.1,32.6,268,32.5,267.9,32.5z"/>
<path class="st5" d="M479.8,249.1c0.3,0.3,0.7,0.7,1,1C480.2,250.1,479.8,249.8,479.8,249.1z"/>
<path class="st4" d="M252.2,29.6c-0.1-9.8-0.2-19.7-0.2-29.5c-0.3,0-0.7,0-1,0c-5.7,0-11.3,0-17,0c-0.2,0.7-0.8,1-1.5,1
	c-13.3-0.5-25.9,3.1-38.6,6.2c-24.4,5.8-47.4,15.2-68.8,28.3c-13,7.9-25.4,16.6-36.9,26.7c-11.3,10-22.3,20.4-31.6,32.2
	c-13.8,17.2-25.4,35.9-34.4,56.2c-10.2,23.1-17.4,47-20.3,72.1c-0.4,3.7,0.3,7.8-1.8,11.3c0,5.7,0,11.3,0,17
	c1.9-0.3,3.9-0.7,5.8-0.7c8-0.1,16-0.1,24,0c3.1,0.1,4.7-0.9,4.5-4.3c-0.4-4.3,0.7-8.6,1.1-12.9c1.9-23.3,7.9-45.6,17.3-66.9
	c9.6-22,22.7-41.9,38.8-59.8c18.9-21,41-37.6,66.2-50.2c0.6-0.3,1.2-0.6,1.8-0.9c0,0,0.2,0,0.2,0c0.6-0.3,1.2-0.6,1.8-0.9
	c0,0,0.3-0.1,0.3-0.1c0.8,0,1.3-0.3,1.7-0.9c0,0,0.3-0.1,0.3-0.1c0.8,0.1,1.3-0.3,1.7-0.9c0,0,0.3-0.1,0.3-0.1c1,0.1,1.9,0,2.3-1
	c0,0,0,0,0,0c1,0.3,1.7-0.1,2.3-0.9c7.3-3.2,14.8-5.7,22.3-8.1c8.8-2.8,17.9-4.4,26.9-6c1.7,0.2,3.4,0.3,4.8-0.9c0,0,0.3,0,0.3,0
	c3.2-0.2,6.5,0.3,9.6-1c0,0,0.3,0,0.3,0c3.8-0.1,7.7,0.6,11.3-1c1.7,0,3.6,1,5-0.9c0,0,0.1-0.1,0.1-0.1
	C252.3,31.6,252.2,30.6,252.2,29.6z"/>
<path class="st0" d="M257.4,219.3c19.3,0.1,35.3,16.3,35.2,35.9c0,19.3-16.3,35.5-35.6,35.5c-19.8,0-35.9-16-35.9-35.6
	C221.2,235,237.2,219.2,257.4,219.3z"/>
</svg>
